<?xml version="1.0" encoding="UTF-8" standalone="no"?>
<svg
   version="1.0"
   width="225.000000pt"
   height="225.000000pt"
   viewBox="0 0 225.000000 225.000000"
   preserveAspectRatio="xMidYMid meet"
   id="svg416"
   sodipodi:docname="logo_centauro_1_svg_con_texto_3.svg"
   inkscape:version="1.2.2 (732a01da63, 2022-12-09)"
   xmlns:inkscape="http://www.inkscape.org/namespaces/inkscape"
   xmlns:sodipodi="http://sodipodi.sourceforge.net/DTD/sodipodi-0.dtd"
   xmlns="http://www.w3.org/2000/svg"
   xmlns:svg="http://www.w3.org/2000/svg">
  <defs
     id="defs420">
    <rect
       x="24.092551"
       y="228.49065"
       width="258.02345"
       height="58.288431"
       id="rect10206" />
    <rect
       x="12.434865"
       y="310.09445"
       width="266.57242"
       height="44.299207"
       id="rect495" />
  </defs>
  <sodipodi:namedview
     id="namedview418"
     pagecolor="#ffffff"
     bordercolor="#000000"
     borderopacity="0.25"
     inkscape:showpageshadow="2"
     inkscape:pageopacity="0.0"
     inkscape:pagecheckerboard="0"
     inkscape:deskcolor="#d1d1d1"
     inkscape:document-units="pt"
     showgrid="false"
     inkscape:zoom="1.2867047"
     inkscape:cx="0.38858954"
     inkscape:cy="195.84913"
     inkscape:window-width="1360"
     inkscape:window-height="705"
     inkscape:window-x="-8"
     inkscape:window-y="-8"
     inkscape:window-maximized="1"
     inkscape:current-layer="svg416" />
  <g
     transform="matrix(0.10001926,0,0,-0.08691518,4.30813,195.82969)"
     fill="#000000"
     stroke="none"
     id="g414">
    <path
       d="m 590,2114.0448 c 54,-31.6826 127,-99.4482 147,-135.5312 11,-21.1218 31,-60.725 44,-88.8874 13,-28.1623 39,-66.8855 58,-86.2471 28,-29.9225 36,-33.4428 43,-22.0018 5,7.0405 7,22.8819 4,35.2029 -2,12.321 4,36.963 15,55.4446 10,17.6014 19,38.7232 19,46.6438 0,20.2417 -35,46.6439 -97,73.9262 -29,13.201 -53,29.0424 -53,36.0829 0,16.7214 36,17.6015 47,0.8801 4,-7.0406 34,-24.642 66,-39.6033 50,-22.8819 56,-23.7619 47,-8.8007 -6,9.6808 -30,34.3228 -53,55.4446 -35,31.6826 -58,43.1236 -137,66.0055 -52,14.9612 -113,27.2822 -135,26.4022 h -40 z"
       id="path384"
       style="stroke-width:0.938122" />
    <path
       d="m 1725,2033.0781 c 4,-12.321 13,-41.3634 22,-66.0055 8,-23.7619 17,-86.2471 20,-138.1714 5,-82.7269 8,-95.0479 25,-100.3283 42,-11.441 51,-41.3634 46,-148.7323 -3,-55.4446 -2,-101.2084 2,-101.2084 4,0 13,39.6033 20,87.1272 19,124.9704 4,225.2987 -50,344.9886 -22,50.1641 -52,103.8486 -66,117.9297 -25,25.5222 -26,25.5222 -19,4.4004 z"
       id="path386"
       style="stroke-width:0.938122" />
    <path
       d="m 1001,1957.3918 c -68,-50.1641 -110,-151.3725 -91,-215.6178 16,-52.8044 184,-200.6566 206,-181.295 10,8.8007 -34,93.2877 -75,142.5718 -22,28.1623 -41,56.3246 -41,63.3652 0,20.2417 24,12.321 53,-15.8413 23,-23.762 32,-26.4022 59,-22.0018 41,7.0406 59,22.0018 88,73.046 21,36.9631 22,44.8838 11,80.9667 -7,22.0019 -20,47.524 -29,56.3247 -48,46.6439 -132,55.4446 -181,18.4815 z"
       id="path388"
       style="stroke-width:0.938122" />
    <path
       d="m 737,1895.7867 c -16,-14.0811 -5,-70.4058 27,-142.5718 28,-62.4851 35,-94.1678 41,-168.974 7,-102.0884 12,-123.2102 26,-123.2102 5,0 9,26.4022 9,59.845 0,32.5627 7,86.2471 15,119.6899 l 15,61.6051 -56,92.4077 c -62,102.9685 -67,109.129 -77,101.2083 z"
       id="path390"
       style="stroke-width:0.938122" />
    <path
       d="m 1251,1871.1447 c 2,-1.7602 54,-14.0812 114,-26.4022 61,-13.2011 156,-33.4428 213,-46.6439 57,-12.321 105,-20.2416 108,-17.6014 3,1.7601 -90,24.642 -206,49.2841 -200,42.2435 -239,49.2841 -229,41.3634 z"
       id="path392"
       style="stroke-width:0.938122" />
    <path
       d="m 1220,1792.8182 c 0,-2.6402 46,-33.4428 103,-67.7656 56,-34.3228 198,-121.4501 315,-193.616 117,-72.166 221,-139.0516 230,-148.7324 20,-21.1217 113,-65.1254 121,-57.2047 7,6.1605 -89,82.7269 -105,82.7269 -6,0 -35,14.9612 -65,33.4427 -179,110.8892 -570,345.8687 -583,350.269 -9,2.6403 -16,3.5203 -16,0.8801 z"
       id="path394"
       style="stroke-width:0.938122" />
    <path
       d="m 741,1651.1265 c -1,-54.5645 19,-144.332 36,-156.653 14,-10.5609 16,-5.2804 11,50.1642 -3,34.3228 -14,79.2065 -26,101.2083 l -20,39.6033 z"
       id="path396"
       style="stroke-width:0.938122" />
    <path
       d="m 1129,1616.8036 c 31,-75.6862 69,-133.771 108,-165.4537 68,-55.4446 191,-104.7286 258,-104.7286 24,0 12,7.9206 -64,42.2435 -105,45.7637 -161,86.2471 -161,115.2895 0,18.4815 1,18.4815 25,4.4004 58,-33.4428 31,25.5221 -37,80.9667 -48,38.7232 -132,91.5276 -146,91.5276 -5,0 3,-29.0425 17,-64.2454 z"
       id="path398"
       style="stroke-width:0.938122" />
    <path
       d="m 882,1607.1228 c -18,-31.6826 -22,-52.8043 -22,-131.1308 0,-102.9686 14,-132.891 23,-47.524 4,44.0037 10,58.0848 32,73.9262 41,31.6826 72,34.3228 143,11.4409 96,-29.9225 99,-12.321 7,44.8837 -42,26.4022 -89,56.3247 -105,67.7656 -40,28.1624 -54,24.6421 -78,-19.3616 z"
       id="path400"
       style="stroke-width:0.938122" />
    <path
       d="m 953,1494.4735 c -24,-10.5609 -43,-48.404 -43,-88.0073 0,-40.4833 33,-86.2471 110,-152.2526 40,-33.4428 85,-79.2066 101,-101.2084 28,-39.6033 29,-39.6033 29,-13.2011 0,37.8432 -32,94.1678 -79,139.0515 -61,58.0849 -66,77.4465 -39,145.2121 22,55.4446 22,56.3246 3,68.6457 -22,14.0811 -51,14.9612 -82,1.7601 z"
       id="path402"
       style="stroke-width:0.938122" />
    <path
       d="m 514,1449.5898 c 10,-6.1605 31,-19.3616 45,-29.9225 l 26,-19.3616 -66,-0.8801 c -68,0 -151,-17.6014 -183,-37.8431 -16,-10.5609 -14,-11.441 20,-8.8007 l 39,3.5203 -30,-20.2417 c -139,-94.1678 -191,-197.1363 -165,-326.5071 10,-47.5239 43,-120.56995 55,-120.56995 2,0 2,24.64204 -1,55.44459 -6,57.20476 4,112.64936 22,117.92976 7,1.7602 14,-20.2417 18,-56.3247 8,-73.04601 25,-124.09023 65,-194.49606 73,-128.49065 182,-190.97582 490,-284.26355 125,-37.84313 157,-39.60328 65,-3.52029 -125,48.40401 -274,139.93159 -385,234.97946 -51,44.00365 -71,69.52576 -92,115.28955 -26,56.32467 -34,94.1678 -21,94.1678 3,0 26,-15.84131 51,-35.20292 25,-19.3616 50,-35.20291 54,-35.20291 14,0 10,20.24168 -7,42.2435 -8,10.56087 -26,47.52393 -40,80.96672 -20,51.0442 -22,65.1254 -12,83.6069 16,31.6826 32,22.8819 36,-19.3616 2,-22.8819 9,-38.7232 18,-41.3634 21,-7.0406 35,1.7601 33,19.3616 -3,31.6826 2,45.7638 27,71.2859 29,30.8025 53,34.3228 89,13.2011 31,-18.4816 34,-62.4852 5,-89.7675 -11,-10.5608 -20,-21.1217 -20,-23.7619 0,-7.9207 151,5.2804 173,14.9612 9,4.4004 24,17.6015 33,29.0424 14,18.4816 14,28.1624 4,67.7656 -7,25.5221 -16,51.0443 -20,55.4446 -4,5.2805 -17,30.8026 -29,58.0848 -39,86.2472 -114,144.332 -233,180.415 -79,22.8819 -93,25.5221 -64,9.6808 z"
       id="path404"
       style="stroke-width:0.938122" />
    <path
       d="m 1382,1451.3499 c 2,-7.0406 51,-33.4427 108,-58.9649 81,-35.2029 123,-48.404 180,-55.4445 115,-13.2011 205,14.9612 154,49.284 -25,16.7214 -64,16.7214 -64,0.8801 0,-23.762 -31,-22.0018 -83,2.6402 -95,46.6439 -305,90.6475 -295,61.6051 z"
       id="path406"
       style="stroke-width:0.938122" />
    <path
       d="m 1136,1395.0253 c 71,-101.2084 189,-249.9407 192,-242.0201 2,4.4004 -41,64.2453 -95,132.0109 -113,143.4519 -151,186.5755 -97,110.0092 z"
       id="path408"
       style="stroke-width:0.938122" />
    <path
       d="m 780,1399.4256 c 0,-9.6808 20,-54.5645 44,-99.4482 41,-75.6863 67,-138.1715 80,-191.8559 3,-12.321 17,-33.4428 32,-47.5239 l 27,-25.5222 -23,-15.8413 c -19,-13.2011 -41,-15.8413 -139,-15.8413 -102,0 -121,-2.6402 -156,-20.24165 -54,-26.40219 -70,-57.20474 -52,-95.92795 8,-15.84131 26,-38.7232 41,-50.16415 53,-43.12357 29,-47.52394 -56,-9.6808 -32,14.08116 -61,26.40218 -64,26.40218 -11,0 39,-54.56451 99,-108.24896 106,-94.1678 281,-178.6548 467,-226.17873 173,-43.12358 223,-71.28591 173,-95.92795 -10,-4.40036 -16,-10.56087 -13,-12.32102 8,-7.04058 270,-102.96853 280,-102.96853 20,0 -15,54.56452 -58,92.40766 -57,48.40401 -123,80.08663 -277,132.01093 -115,39.60328 -235,91.52758 -235,102.08845 0,3.5203 23,7.92066 50,11.44095 69,7.92066 96,18.48153 115,44.00365 36,48.40401 -38,122.33013 -173,170.73414 -43,15.84131 -87,36.08299 -96,44.88371 -15,14.08117 -15,16.72139 -1,27.28226 13,9.68081 23,7.04059 59,-16.72138 57,-35.20292 111,-36.96306 173,-4.40037 50,25.52212 63,48.40401 63,107.36886 0,61.6051 -28,99.4483 -159,217.378 -65,58.0849 -132,122.3302 -150,143.4519 -36,40.4834 -51,46.6439 -51,19.3616 z"
       id="path410"
       style="stroke-width:0.938122" />
    <path
       d="m 1672,1252.4535 c -96,-92.4077 -257,-190.9759 -273,-168.974 -5,7.9206 -33,-7.9207 -96,-54.5646 -48,-36.96302 -117,-85.36703 -152,-107.36885 -35,-22.8819 -58,-41.36343 -51,-41.36343 23,0 194,80.08663 295,138.17148 106,61.6051 224,155.7729 300,241.1399 26,29.0424 45,51.9243 43,51.9243 -2,0 -32,-26.4022 -66,-58.9648 z"
       id="path412"
       style="stroke-width:0.938122" />
  </g>
  <text
     xml:space="preserve"
     transform="scale(0.75)"
     id="text10204"
     style="font-style:normal;font-variant:normal;font-weight:bold;font-stretch:normal;font-size:24px;font-family:'Segoe UI';-inkscape-font-specification:'Segoe UI Bold';text-align:center;white-space:pre;shape-inside:url(#rect10206);fill:#000000;stroke:#ffffff;stroke-width:0;stroke-dasharray:none;stroke-dashoffset:0;stroke-opacity:1"
     x="83.34375"
     y="0"><tspan
       x="89.863281"
       y="250.10834"
       id="tspan10239"><tspan
         style="font-weight:900;-inkscape-font-specification:'Segoe UI Heavy'"
         id="tspan10237">ARQUERIA
</tspan></tspan><tspan
       x="67.380859"
       y="280.10834"
       id="tspan10243"><tspan
         style="font-weight:900;-inkscape-font-specification:'Segoe UI Heavy'"
         id="tspan10241">CODO A CODO</tspan></tspan></text>
</svg>
