<?xml version="1.0" standalone="no"?>
<!DOCTYPE svg PUBLIC "-//W3C//DTD SVG 20010904//EN"
 "http://www.w3.org/TR/2001/REC-SVG-20010904/DTD/svg10.dtd">
<svg version="1.0" xmlns="http://www.w3.org/2000/svg"
 width="225.000000pt" height="225.000000pt" viewBox="0 0 225.000000 225.000000"
 preserveAspectRatio="xMidYMid meet">

<g transform="translate(0.000000,225.000000) scale(0.100000,-0.100000)"
fill="#000000" stroke="none">
<path d="M590 2112 c54 -36 127 -113 147 -154 11 -24 31 -69 44 -101 13 -32
39 -76 58 -98 28 -34 36 -38 43 -25 5 8 7 26 4 40 -2 14 4 42 15 63 10 20 19
44 19 53 0 23 -35 53 -97 84 -29 15 -53 33 -53 41 0 19 36 20 47 1 4 -8 34
-28 66 -45 50 -26 56 -27 47 -10 -6 11 -30 39 -53 63 -35 36 -58 49 -137 75
-52 17 -113 31 -135 30 l-40 0 25 -17z"/>
<path d="M1725 2020 c4 -14 13 -47 22 -75 8 -27 17 -98 20 -157 5 -94 8 -108
25 -114 42 -13 51 -47 46 -169 -3 -63 -2 -115 2 -115 4 0 13 45 20 99 19 142
4 256 -50 392 -22 57 -52 118 -66 134 -25 29 -26 29 -19 5z"/>
<path d="M1001 1934 c-68 -57 -110 -172 -91 -245 16 -60 184 -228 206 -206 10
10 -34 106 -75 162 -22 32 -41 64 -41 72 0 23 24 14 53 -18 23 -27 32 -30 59
-25 41 8 59 25 88 83 21 42 22 51 11 92 -7 25 -20 54 -29 64 -48 53 -132 63
-181 21z"/>
<path d="M737 1864 c-16 -16 -5 -80 27 -162 28 -71 35 -107 41 -192 7 -116 12
-140 26 -140 5 0 9 30 9 68 0 37 7 98 15 136 l15 70 -56 105 c-62 117 -67 124
-77 115z"/>
<path d="M1251 1836 c2 -2 54 -16 114 -30 61 -15 156 -38 213 -53 57 -14 105
-23 108 -20 3 2 -90 28 -206 56 -200 48 -239 56 -229 47z"/>
<path d="M1220 1747 c0 -3 46 -38 103 -77 56 -39 198 -138 315 -220 117 -82
221 -158 230 -169 20 -24 113 -74 121 -65 7 7 -89 94 -105 94 -6 0 -35 17 -65
38 -179 126 -570 393 -583 398 -9 3 -16 4 -16 1z"/>
<path d="M741 1586 c-1 -62 19 -164 36 -178 14 -12 16 -6 11 57 -3 39 -14 90
-26 115 l-20 45 -1 -39z"/>
<path d="M1129 1547 c31 -86 69 -152 108 -188 68 -63 191 -119 258 -119 24 0
12 9 -64 48 -105 52 -161 98 -161 131 0 21 1 21 25 5 58 -38 31 29 -37 92 -48
44 -132 104 -146 104 -5 0 3 -33 17 -73z"/>
<path d="M882 1536 c-18 -36 -22 -60 -22 -149 0 -117 14 -151 23 -54 4 50 10
66 32 84 41 36 72 39 143 13 96 -34 99 -14 7 51 -42 30 -89 64 -105 77 -40 32
-54 28 -78 -22z"/>
<path d="M953 1408 c-24 -12 -43 -55 -43 -100 0 -46 33 -98 110 -173 40 -38
85 -90 101 -115 28 -45 29 -45 29 -15 0 43 -32 107 -79 158 -61 66 -66 88 -39
165 22 63 22 64 3 78 -22 16 -51 17 -82 2z"/>
<path d="M514 1357 c10 -7 31 -22 45 -34 l26 -22 -66 -1 c-68 0 -151 -20 -183
-43 -16 -12 -14 -13 20 -10 l39 4 -30 -23 c-139 -107 -191 -224 -165 -371 10
-54 43 -137 55 -137 2 0 2 28 -1 63 -6 65 4 128 22 134 7 2 14 -23 18 -64 8
-83 25 -141 65 -221 73 -146 182 -217 490 -323 125 -43 157 -45 65 -4 -125 55
-274 159 -385 267 -51 50 -71 79 -92 131 -26 64 -34 107 -21 107 3 0 26 -18
51 -40 25 -22 50 -40 54 -40 14 0 10 23 -7 48 -8 12 -26 54 -40 92 -20 58 -22
74 -12 95 16 36 32 26 36 -22 2 -26 9 -44 18 -47 21 -8 35 2 33 22 -3 36 2 52
27 81 29 35 53 39 89 15 31 -21 34 -71 5 -102 -11 -12 -20 -24 -20 -27 0 -9
151 6 173 17 9 5 24 20 33 33 14 21 14 32 4 77 -7 29 -16 58 -20 63 -4 6 -17
35 -29 66 -39 98 -114 164 -233 205 -79 26 -93 29 -64 11z"/>
<path d="M1382 1359 c2 -8 51 -38 108 -67 81 -40 123 -55 180 -63 115 -15 205
17 154 56 -25 19 -64 19 -64 1 0 -27 -31 -25 -83 3 -95 53 -305 103 -295 70z"/>
<path d="M1136 1295 c71 -115 189 -284 192 -275 2 5 -41 73 -95 150 -113 163
-151 212 -97 125z"/>
<path d="M780 1300 c0 -11 20 -62 44 -113 41 -86 67 -157 80 -218 3 -14 17
-38 32 -54 l27 -29 -23 -18 c-19 -15 -41 -18 -139 -18 -102 0 -121 -3 -156
-23 -54 -30 -70 -65 -52 -109 8 -18 26 -44 41 -57 53 -49 29 -54 -56 -11 -32
16 -61 30 -64 30 -11 0 39 -62 99 -123 106 -107 281 -203 467 -257 173 -49
223 -81 173 -109 -10 -5 -16 -12 -13 -14 8 -8 270 -117 280 -117 20 0 -15 62
-58 105 -57 55 -123 91 -277 150 -115 45 -235 104 -235 116 0 4 23 9 50 13 69
9 96 21 115 50 36 55 -38 139 -173 194 -43 18 -87 41 -96 51 -15 16 -15 19 -1
31 13 11 23 8 59 -19 57 -40 111 -42 173 -5 50 29 63 55 63 122 0 70 -28 113
-159 247 -65 66 -132 139 -150 163 -36 46 -51 53 -51 22z"/>
<path d="M1672 1133 c-96 -105 -257 -217 -273 -192 -5 9 -33 -9 -96 -62 -48
-42 -117 -97 -152 -122 -35 -26 -58 -47 -51 -47 23 0 194 91 295 157 106 70
224 177 300 274 26 33 45 59 43 59 -2 0 -32 -30 -66 -67z"/>
</g>
</svg>
